<svg xmlns="http://www.w3.org/2000/svg" viewBox="0 0 512 512" role="img" aria-labelledby="title desc">
  <title id="title">I-Sense Observatory</title>
  <desc id="desc">A side-profile head looking upward with four rays rising from the crown.</desc>
  <defs>
    <radialGradient id="bg" cx="50%" cy="34%" r="78%">
      <stop offset="0%" stop-color="#1f3337"/>
      <stop offset="48%" stop-color="#0b171d"/>
      <stop offset="100%" stop-color="#05090d"/>
    </radialGradient>
  </defs>
  <rect width="512" height="512" rx="108" fill="url(#bg)"/>
  <path d="M196 161L154 56M226 142L220 34M258 138L287 35M287 151L361 62" fill="none" stroke="#fffaf0" stroke-width="8" stroke-linecap="round"/>
  <path d="M113 454c19-61 57-84 88-118 19-21 23-50 8-73-20-30-19-70 3-100 25-34 68-50 108-40 42 11 70 45 76 89 2 14 10 26 22 33l33 18-35 13c-8 3-13 11-12 20l4 28-38-6c-17-3-33 8-37 25l-9 42" fill="none" stroke="#fffaf0" stroke-width="15" stroke-linecap="round" stroke-linejoin="round"/>
  <path d="M305 204c15-12 35-13 51-2M355 238c12 5 18 13 18 25M298 251c17-8 36-6 51 4M263 301c25 15 53 18 79 8M198 393c37-19 75-20 114-2" fill="none" stroke="#fffaf0" stroke-width="8" stroke-linecap="round" stroke-linejoin="round"/>
  <path d="M324 222c13 10 27 9 41-3" fill="none" stroke="#fffaf0" stroke-width="7" stroke-linecap="round"/>
</svg>
