<svg xmlns="http://www.w3.org/2000/svg" viewBox="0 0 1024 1024" role="img" aria-labelledby="title desc">
  <title id="title">Tone Recall mark</title>
  <desc id="desc">A glowing orb with a wave passing through it.</desc>
  <defs>
    <radialGradient id="backgroundGlow" cx="50%" cy="50%" r="72%">
      <stop offset="0" stop-color="#65543c"/>
      <stop offset=".34" stop-color="#2c2118"/>
      <stop offset=".72" stop-color="#100b0a"/>
      <stop offset="1" stop-color="#070404"/>
    </radialGradient>
    <radialGradient id="centerLight" cx="50%" cy="50%" r="68%">
      <stop offset="0" stop-color="#fff7e8"/>
      <stop offset=".16" stop-color="#f3dec0" stop-opacity=".82"/>
      <stop offset=".46" stop-color="#b89a73" stop-opacity=".36"/>
      <stop offset=".74" stop-color="#6b5b44" stop-opacity=".14"/>
      <stop offset="1" stop-color="#f3dec0" stop-opacity="0"/>
    </radialGradient>
    <radialGradient id="orbBody" cx="50%" cy="50%" r="62%">
      <stop offset="0" stop-color="#fff5dd"/>
      <stop offset=".22" stop-color="#efd5ad" stop-opacity=".8"/>
      <stop offset=".5" stop-color="#a98a63" stop-opacity=".42"/>
      <stop offset=".78" stop-color="#4b3f31" stop-opacity=".16"/>
      <stop offset="1" stop-color="#0b0707" stop-opacity="0"/>
    </radialGradient>
    <linearGradient id="ringStroke" x1="240" y1="230" x2="780" y2="820" gradientUnits="userSpaceOnUse">
      <stop offset="0" stop-color="#fff9ed"/>
      <stop offset=".5" stop-color="#e7d6b7"/>
      <stop offset="1" stop-color="#fff2d8"/>
    </linearGradient>
    <linearGradient id="waveStroke" x1="82" y1="500" x2="934" y2="500" gradientUnits="userSpaceOnUse">
      <stop offset="0" stop-color="#fff8ec"/>
      <stop offset=".22" stop-color="#f7ead4"/>
      <stop offset=".5" stop-color="#ffffff"/>
      <stop offset=".76" stop-color="#d8bf95"/>
      <stop offset="1" stop-color="#fff2d7"/>
    </linearGradient>
    <filter id="softHalo" x="-45%" y="-45%" width="190%" height="190%">
      <feGaussianBlur stdDeviation="44" result="blur"/>
      <feMerge>
        <feMergeNode in="blur"/>
        <feMergeNode in="SourceGraphic"/>
      </feMerge>
    </filter>
    <filter id="waveGlow" x="-18%" y="-60%" width="136%" height="220%">
      <feGaussianBlur stdDeviation="13" result="blur"/>
      <feMerge>
        <feMergeNode in="blur"/>
        <feMergeNode in="SourceGraphic"/>
      </feMerge>
    </filter>
  </defs>

  <rect width="1024" height="1024" rx="224" fill="url(#backgroundGlow)"/>
  <circle cx="512" cy="512" r="372" fill="#d5b98a" opacity=".12" filter="url(#softHalo)"/>
  <circle cx="512" cy="512" r="294" fill="url(#orbBody)" opacity=".68"/>
  <circle cx="512" cy="512" r="218" fill="url(#centerLight)" opacity=".54" filter="url(#softHalo)"/>
  <circle cx="512" cy="512" r="300" fill="none" stroke="url(#ringStroke)" stroke-width="13" stroke-opacity=".72"/>
  <circle cx="512" cy="512" r="300" fill="none" stroke="#fff7e8" stroke-width="4" stroke-opacity=".34"/>

  <path d="M92 558 C154 558 210 414 306 386 C397 360 445 504 520 582 C593 658 662 674 742 596 C812 528 858 506 932 514" fill="none" stroke="#f7ead7" stroke-width="46" stroke-linecap="round" stroke-opacity=".24" filter="url(#waveGlow)"/>
  <path d="M92 558 C154 558 210 414 306 386 C397 360 445 504 520 582 C593 658 662 674 742 596 C812 528 858 506 932 514" fill="none" stroke="url(#waveStroke)" stroke-width="24" stroke-linecap="round" stroke-opacity=".96" filter="url(#waveGlow)"/>
  <path d="M92 558 C154 558 210 414 306 386 C397 360 445 504 520 582 C593 658 662 674 742 596 C812 528 858 506 932 514" fill="none" stroke="#ffffff" stroke-width="9" stroke-linecap="round" stroke-opacity=".56"/>
</svg>
