<svg xmlns="http://www.w3.org/2000/svg" viewBox="0 0 1024 1024" role="img" aria-labelledby="title desc">
  <title id="title">Tone Recall mark</title>
  <desc id="desc">A glowing orb with a wave passing through it.</desc>
  <defs>
    <radialGradient id="backgroundGlow" cx="50%" cy="43%" r="72%">
      <stop offset="0" stop-color="#6f6049"/>
      <stop offset=".32" stop-color="#2d221c"/>
      <stop offset=".72" stop-color="#100b0a"/>
      <stop offset="1" stop-color="#070404"/>
    </radialGradient>
    <radialGradient id="centerLight" cx="48%" cy="42%" r="54%">
      <stop offset="0" stop-color="#fff7e8"/>
      <stop offset=".18" stop-color="#f3dec0" stop-opacity=".98"/>
      <stop offset=".42" stop-color="#b89a73" stop-opacity=".62"/>
      <stop offset=".72" stop-color="#6b5b44" stop-opacity=".28"/>
      <stop offset="1" stop-color="#f3dec0" stop-opacity="0"/>
    </radialGradient>
    <radialGradient id="orbBody" cx="48%" cy="42%" r="58%">
      <stop offset="0" stop-color="#fff5dd"/>
      <stop offset=".2" stop-color="#efd5ad"/>
      <stop offset=".48" stop-color="#a98a63" stop-opacity=".5"/>
      <stop offset=".78" stop-color="#4b3f31" stop-opacity=".2"/>
      <stop offset="1" stop-color="#0b0707" stop-opacity="0"/>
    </radialGradient>
    <linearGradient id="ringStroke" x1="240" y1="230" x2="780" y2="820" gradientUnits="userSpaceOnUse">
      <stop offset="0" stop-color="#fff9ed"/>
      <stop offset=".5" stop-color="#e7d6b7"/>
      <stop offset="1" stop-color="#fff2d8"/>
    </linearGradient>
    <linearGradient id="waveStroke" x1="82" y1="500" x2="934" y2="500" gradientUnits="userSpaceOnUse">
      <stop offset="0" stop-color="#fff8ec"/>
      <stop offset=".22" stop-color="#f7ead4"/>
      <stop offset=".5" stop-color="#ffffff"/>
      <stop offset=".76" stop-color="#d8bf95"/>
      <stop offset="1" stop-color="#fff2d7"/>
    </linearGradient>
    <filter id="softHalo" x="-45%" y="-45%" width="190%" height="190%">
      <feGaussianBlur stdDeviation="44" result="blur"/>
      <feMerge>
        <feMergeNode in="blur"/>
        <feMergeNode in="SourceGraphic"/>
      </feMerge>
    </filter>
    <filter id="waveGlow" x="-18%" y="-60%" width="136%" height="220%">
      <feGaussianBlur stdDeviation="13" result="blur"/>
      <feMerge>
        <feMergeNode in="blur"/>
        <feMergeNode in="SourceGraphic"/>
      </feMerge>
    </filter>
  </defs>

  <rect width="1024" height="1024" rx="224" fill="url(#backgroundGlow)"/>
  <circle cx="512" cy="512" r="364" fill="#d5b98a" opacity=".14" filter="url(#softHalo)"/>
  <circle cx="512" cy="512" r="260" fill="url(#orbBody)" opacity=".92"/>
  <circle cx="512" cy="512" r="116" fill="url(#centerLight)" opacity=".95" filter="url(#softHalo)"/>
  <circle cx="512" cy="512" r="281" fill="none" stroke="url(#ringStroke)" stroke-width="14" stroke-opacity=".74"/>
  <circle cx="512" cy="512" r="281" fill="none" stroke="#fff7e8" stroke-width="5" stroke-opacity=".36"/>

  <path
    d="M95 562 C177 487 245 421 340 528 C421 619 494 687 607 548 C705 427 795 439 929 527"
    fill="none"
    stroke="#f7ead7"
    stroke-width="42"
    stroke-linecap="round"
    stroke-opacity=".22"
    filter="url(#waveGlow)"/>
  <path
    d="M95 562 C177 487 245 421 340 528 C421 619 494 687 607 548 C705 427 795 439 929 527"
    fill="none"
    stroke="url(#waveStroke)"
    stroke-width="22"
    stroke-linecap="round"
    stroke-opacity=".96"
    filter="url(#waveGlow)"/>
  <path
    d="M95 562 C177 487 245 421 340 528 C421 619 494 687 607 548 C705 427 795 439 929 527"
    fill="none"
    stroke="#ffffff"
    stroke-width="8"
    stroke-linecap="round"
    stroke-opacity=".56"/>
</svg>
