<svg xmlns="http://www.w3.org/2000/svg" viewBox="0 0 512 512" role="img" aria-label="Unfabricate Lotus Hub eight-spoked dhamma wheel">
  <defs>
    <radialGradient id="gold" cx="34%" cy="24%" r="76%">
      <stop offset="0%" stop-color="#F8E8A8"/>
      <stop offset="48%" stop-color="#D7AD58"/>
      <stop offset="100%" stop-color="#8A6124"/>
    </radialGradient>
    <radialGradient id="glow" cx="50%" cy="50%" r="58%">
      <stop offset="0%" stop-color="#D7AD58" stop-opacity=".34"/>
      <stop offset="64%" stop-color="#D7AD58" stop-opacity=".12"/>
      <stop offset="100%" stop-color="#120E08" stop-opacity="0"/>
    </radialGradient>
  </defs>
  <rect width="512" height="512" rx="96" fill="#120E08"/>
  <rect x="35" y="35" width="442" height="442" rx="72" fill="none" stroke="#F3D98A" stroke-opacity=".34" stroke-width="10"/>
  <circle cx="256" cy="256" r="205" fill="url(#glow)"/>
  <circle cx="256" cy="256" r="188" fill="none" stroke="url(#gold)" stroke-width="24"/>
  <g fill="#D7AD58" opacity=".22">
    <ellipse cx="256" cy="168" rx="20" ry="56"/>
    <ellipse cx="256" cy="168" rx="20" ry="56" transform="rotate(45 256 256)"/>
    <ellipse cx="256" cy="168" rx="20" ry="56" transform="rotate(90 256 256)"/>
    <ellipse cx="256" cy="168" rx="20" ry="56" transform="rotate(135 256 256)"/>
    <ellipse cx="256" cy="168" rx="20" ry="56" transform="rotate(180 256 256)"/>
    <ellipse cx="256" cy="168" rx="20" ry="56" transform="rotate(225 256 256)"/>
    <ellipse cx="256" cy="168" rx="20" ry="56" transform="rotate(270 256 256)"/>
    <ellipse cx="256" cy="168" rx="20" ry="56" transform="rotate(315 256 256)"/>
  </g>
  <g stroke="#F3D98A" stroke-width="22" stroke-linecap="round" opacity=".94">
    <line x1="256" y1="188" x2="256" y2="80"/>
    <line x1="256" y1="188" x2="256" y2="80" transform="rotate(45 256 256)"/>
    <line x1="256" y1="188" x2="256" y2="80" transform="rotate(90 256 256)"/>
    <line x1="256" y1="188" x2="256" y2="80" transform="rotate(135 256 256)"/>
    <line x1="256" y1="188" x2="256" y2="80" transform="rotate(180 256 256)"/>
    <line x1="256" y1="188" x2="256" y2="80" transform="rotate(225 256 256)"/>
    <line x1="256" y1="188" x2="256" y2="80" transform="rotate(270 256 256)"/>
    <line x1="256" y1="188" x2="256" y2="80" transform="rotate(315 256 256)"/>
  </g>
  <circle cx="256" cy="256" r="120" fill="none" stroke="#F3D98A" stroke-opacity=".72" stroke-width="12"/>
  <circle cx="256" cy="256" r="64" fill="#8A6124"/>
  <circle cx="256" cy="256" r="32" fill="#F3D98A" opacity=".94"/>
  <circle cx="256" cy="256" r="220" fill="none" stroke="#F3D98A" stroke-opacity=".28" stroke-width="7"/>
</svg>
