<svg xmlns="http://www.w3.org/2000/svg" viewBox="0 0 512 512" role="img" aria-label="Tone Compass">
  <defs>
    <radialGradient id="bg" cx="50%" cy="44%" r="72%">
      <stop offset="0" stop-color="#5d5038"/>
      <stop offset=".42" stop-color="#171611"/>
      <stop offset=".76" stop-color="#070807"/>
      <stop offset="1" stop-color="#020303"/>
    </radialGradient>
    <radialGradient id="orb" cx="50%" cy="50%" r="54%">
      <stop offset="0" stop-color="#fff4cc"/>
      <stop offset=".28" stop-color="#e5b956"/>
      <stop offset=".58" stop-color="#524027"/>
      <stop offset="1" stop-color="#070807"/>
    </radialGradient>
    <linearGradient id="cream" x1="110" y1="90" x2="410" y2="410">
      <stop offset="0" stop-color="#fff9ec"/>
      <stop offset=".48" stop-color="#dfd0ad"/>
      <stop offset="1" stop-color="#fff0c8"/>
    </linearGradient>
    <linearGradient id="teal" x1="146" y1="404" x2="388" y2="96">
      <stop offset="0" stop-color="#76d6ff"/>
      <stop offset=".52" stop-color="#9cf3df"/>
      <stop offset="1" stop-color="#fff2bf"/>
    </linearGradient>
    <linearGradient id="gold" x1="80" y1="426" x2="438" y2="116">
      <stop offset="0" stop-color="#b97928"/>
      <stop offset=".46" stop-color="#e7ad45"/>
      <stop offset="1" stop-color="#fff0bd"/>
    </linearGradient>
    <filter id="glow" x="-70%" y="-70%" width="240%" height="240%">
      <feGaussianBlur stdDeviation="10" result="blur"/>
      <feMerge>
        <feMergeNode in="blur"/>
        <feMergeNode in="SourceGraphic"/>
      </feMerge>
    </filter>
    <filter id="soft" x="-40%" y="-40%" width="180%" height="180%">
      <feGaussianBlur stdDeviation="6" result="blur"/>
      <feMerge>
        <feMergeNode in="blur"/>
        <feMergeNode in="SourceGraphic"/>
      </feMerge>
    </filter>
  </defs>
  <rect width="512" height="512" rx="132" fill="#050505"/>
  <rect x="24" y="24" width="464" height="464" rx="116" fill="url(#bg)"/>
  <circle cx="256" cy="256" r="166" fill="url(#orb)" opacity=".86" filter="url(#soft)"/>
  <circle cx="256" cy="256" r="176" fill="none" stroke="url(#gold)" stroke-width="8" opacity=".56" filter="url(#glow)"/>
  <circle cx="256" cy="256" r="126" fill="none" stroke="url(#cream)" stroke-width="5" opacity=".72"/>
  <circle cx="256" cy="256" r="74" fill="#050505" opacity=".74"/>
  <path d="M256 86v72M256 354v72M86 256h72M354 256h72" fill="none" stroke="url(#cream)" stroke-width="7" stroke-linecap="round" opacity=".72" filter="url(#soft)"/>
  <path d="M256 108l22 92 92 22-92 22-22 92-22-92-92-22 92-22z" fill="none" stroke="url(#cream)" stroke-width="7" stroke-linejoin="round" opacity=".86" filter="url(#glow)"/>
  <ellipse cx="256" cy="256" rx="158" ry="52" fill="none" stroke="url(#teal)" stroke-width="12" stroke-linecap="round" opacity=".78" transform="rotate(-24 256 256)" filter="url(#glow)"/>
  <ellipse cx="256" cy="256" rx="154" ry="46" fill="none" stroke="url(#gold)" stroke-width="5" stroke-dasharray="1 34 68 26" stroke-linecap="round" opacity=".72" transform="rotate(38 256 256)"/>
  <circle cx="256" cy="86" r="8" fill="#fff0bd" filter="url(#glow)"/>
  <circle cx="426" cy="256" r="7" fill="#9cf3df" filter="url(#glow)"/>
  <circle cx="256" cy="426" r="8" fill="#fff0bd" filter="url(#glow)"/>
  <circle cx="86" cy="256" r="7" fill="#76d6ff" filter="url(#glow)"/>
</svg>
