<svg xmlns="http://www.w3.org/2000/svg" viewBox="0 0 96 96">
  <defs>
    <radialGradient id="bg" cx="50%" cy="48%" r="72%">
      <stop offset="0" stop-color="#65543c"/>
      <stop offset=".34" stop-color="#2c2118"/>
      <stop offset=".72" stop-color="#100b0a"/>
      <stop offset="1" stop-color="#070404"/>
    </radialGradient>
    <linearGradient id="cream" x1="20" x2="76" y1="20" y2="76">
      <stop offset="0" stop-color="#fff9ed"/>
      <stop offset=".5" stop-color="#e7d6b7"/>
      <stop offset="1" stop-color="#fff2d8"/>
    </linearGradient>
    <linearGradient id="copper" x1="18" x2="78" y1="72" y2="24">
      <stop offset="0" stop-color="#9f5635"/>
      <stop offset=".54" stop-color="#e19a4c"/>
      <stop offset="1" stop-color="#bd7f55"/>
    </linearGradient>
    <linearGradient id="blue" x1="32" x2="64" y1="23" y2="73">
      <stop offset="0" stop-color="#d6fbff"/>
      <stop offset=".5" stop-color="#6ce2f8"/>
      <stop offset="1" stop-color="#b8f8ff"/>
    </linearGradient>
    <filter id="glow" x="-60%" y="-60%" width="220%" height="220%">
      <feGaussianBlur stdDeviation="2.1" result="blur"/>
      <feMerge>
        <feMergeNode in="blur"/>
        <feMergeNode in="SourceGraphic"/>
      </feMerge>
    </filter>
  </defs>
  <rect x="5" y="5" width="86" height="86" rx="25" fill="url(#bg)"/>
  <circle cx="48" cy="48" r="31" fill="#d5b98a" opacity=".1"/>
  <circle cx="48" cy="48" r="27" fill="none" stroke="url(#cream)" stroke-width="1.5" opacity=".68"/>
  <circle cx="48" cy="48" r="23" fill="none" stroke="#e7d6b7" stroke-width=".8" opacity=".22"/>
  <circle cx="48" cy="48" r="23.6" fill="none" stroke="#e19a4c" stroke-width="1.1" stroke-dasharray=".8 3.2" opacity=".72"/>
  <ellipse cx="48" cy="48" rx="23" ry="7.8" fill="none" stroke="url(#copper)" stroke-width="2.2" opacity=".82" filter="url(#glow)"/>
  <path d="M34 24C43 36 43 43 48 48C53 53 53 60 62 72" fill="none" stroke="url(#blue)" stroke-width="2.9" stroke-linecap="round" filter="url(#glow)"/>
  <path d="M62 24C53 36 53 43 48 48C43 53 43 60 34 72" fill="none" stroke="url(#blue)" stroke-width="2.9" stroke-linecap="round" filter="url(#glow)"/>
  <circle cx="48" cy="48" r="8" fill="#070404" stroke="url(#cream)" stroke-width="4.2" filter="url(#glow)"/>
</svg>
