<svg xmlns="http://www.w3.org/2000/svg" viewBox="0 0 96 96">
  <defs>
    <radialGradient id="bg" cx="50%" cy="50%" r="72%">
      <stop offset="0" stop-color="#65543c"/>
      <stop offset=".34" stop-color="#2c2118"/>
      <stop offset=".72" stop-color="#100b0a"/>
      <stop offset="1" stop-color="#070404"/>
    </radialGradient>
    <radialGradient id="orb" cx="50%" cy="50%" r="62%">
      <stop offset="0" stop-color="#fff5dd"/>
      <stop offset=".22" stop-color="#efd5ad" stop-opacity=".8"/>
      <stop offset=".5" stop-color="#a98a63" stop-opacity=".42"/>
      <stop offset=".78" stop-color="#4b3f31" stop-opacity=".16"/>
      <stop offset="1" stop-color="#0b0707" stop-opacity="0"/>
    </radialGradient>
    <linearGradient id="cream" x1="20" x2="76" y1="20" y2="76">
      <stop offset="0" stop-color="#fff9ed"/>
      <stop offset=".5" stop-color="#e7d6b7"/>
      <stop offset="1" stop-color="#fff2d8"/>
    </linearGradient>
    <linearGradient id="warm" x1="18" x2="78" y1="67" y2="29">
      <stop offset="0" stop-color="#fff8ec"/>
      <stop offset=".5" stop-color="#e7d6b7"/>
      <stop offset="1" stop-color="#d8bf95"/>
    </linearGradient>
    <filter id="halo" x="-45%" y="-45%" width="190%" height="190%">
      <feGaussianBlur stdDeviation="4.2" result="blur"/>
      <feMerge>
        <feMergeNode in="blur"/>
        <feMergeNode in="SourceGraphic"/>
      </feMerge>
    </filter>
    <filter id="glow" x="-55%" y="-55%" width="210%" height="210%">
      <feGaussianBlur stdDeviation="2" result="blur"/>
      <feMerge>
        <feMergeNode in="blur"/>
        <feMergeNode in="SourceGraphic"/>
      </feMerge>
    </filter>
  </defs>
  <rect x="5" y="5" width="86" height="86" rx="25" fill="url(#bg)"/>
  <circle cx="48" cy="48" r="34" fill="#d5b98a" opacity=".12" filter="url(#halo)"/>
  <circle cx="48" cy="48" r="28" fill="url(#orb)" opacity=".68"/>
  <circle cx="48" cy="48" r="27" fill="none" stroke="url(#cream)" stroke-width="1.35" opacity=".72"/>
  <circle cx="48" cy="48" r="27" fill="none" stroke="#fff7e8" stroke-width=".45" opacity=".34"/>
  <ellipse cx="48" cy="48" rx="27" ry="8.4" fill="none" stroke="url(#warm)" stroke-width="2.7" opacity=".62" filter="url(#glow)"/>
  <path d="M34 25C43 37 43 44 48 48C53 52 53 59 62 71" fill="none" stroke="url(#cream)" stroke-width="2.8" stroke-linecap="round" opacity=".86" filter="url(#glow)"/>
  <path d="M62 25C53 37 53 44 48 48C43 52 43 59 34 71" fill="none" stroke="url(#cream)" stroke-width="2.8" stroke-linecap="round" opacity=".86" filter="url(#glow)"/>
  <path d="M22 51C30 48 38 47 48 48C58 49 66 48 74 45" fill="none" stroke="#fff7e8" stroke-width="1.35" stroke-linecap="round" opacity=".54" filter="url(#glow)"/>
  <circle cx="48" cy="48" r="8.4" fill="#070404" stroke="url(#cream)" stroke-width="4.4" filter="url(#glow)"/>
</svg>
