<svg xmlns="http://www.w3.org/2000/svg" viewBox="0 0 1024 1024" role="img" aria-label="Tone Glyph">
  <defs>
    <radialGradient id="bg" cx="50%" cy="46%" r="64%">
      <stop offset="0%" stop-color="#273934"/>
      <stop offset="44%" stop-color="#071016"/>
      <stop offset="100%" stop-color="#05070a"/>
    </radialGradient>
    <linearGradient id="line" x1="140" y1="160" x2="884" y2="864">
      <stop offset="0%" stop-color="#f6d27a"/>
      <stop offset="52%" stop-color="#66e2cf"/>
      <stop offset="100%" stop-color="#f08a7e"/>
    </linearGradient>
    <filter id="glow" x="-30%" y="-30%" width="160%" height="160%">
      <feGaussianBlur stdDeviation="14" result="blur"/>
      <feMerge>
        <feMergeNode in="blur"/>
        <feMergeNode in="SourceGraphic"/>
      </feMerge>
    </filter>
  </defs>
  <rect width="1024" height="1024" rx="242" fill="url(#bg)"/>
  <circle cx="512" cy="512" r="342" fill="none" stroke="#f6d27a" stroke-opacity=".18" stroke-width="18"/>
  <circle cx="512" cy="512" r="202" fill="none" stroke="#66e2cf" stroke-opacity=".20" stroke-width="12"/>
  <g filter="url(#glow)" fill="none" stroke="url(#line)" stroke-linecap="round">
    <path d="M512 188 793 350 793 674 512 836 231 674 231 350Z" stroke-width="20" opacity=".84"/>
    <path d="M512 188 231 674M512 188 793 674M231 350 793 674M793 350 231 674M231 350 512 836M793 350 512 836" stroke-width="12" opacity=".72"/>
    <path d="M512 324 675 418 675 606 512 700 349 606 349 418Z" stroke-width="14" opacity=".86"/>
    <path d="M512 324 349 606M512 324 675 606M349 418 675 606M675 418 349 606M349 418 512 700M675 418 512 700" stroke-width="8" opacity=".62"/>
  </g>
  <g filter="url(#glow)">
    <circle cx="512" cy="512" r="42" fill="#f6d27a"/>
    <circle cx="512" cy="188" r="30" fill="#f6d27a"/>
    <circle cx="793" cy="350" r="30" fill="#66e2cf"/>
    <circle cx="793" cy="674" r="30" fill="#f08a7e"/>
    <circle cx="512" cy="836" r="30" fill="#f6d27a"/>
    <circle cx="231" cy="674" r="30" fill="#66e2cf"/>
    <circle cx="231" cy="350" r="30" fill="#f08a7e"/>
    <circle cx="512" cy="324" r="23" fill="#eef5ee"/>
    <circle cx="675" cy="418" r="23" fill="#66e2cf"/>
    <circle cx="675" cy="606" r="23" fill="#f08a7e"/>
    <circle cx="512" cy="700" r="23" fill="#eef5ee"/>
    <circle cx="349" cy="606" r="23" fill="#66e2cf"/>
    <circle cx="349" cy="418" r="23" fill="#f08a7e"/>
  </g>
</svg>
