<svg xmlns="http://www.w3.org/2000/svg" viewBox="0 0 1024 1024" role="img" aria-label="Tone Glyph">
  <defs>
    <radialGradient id="bg" cx="50%" cy="46%" r="64%">
      <stop offset="0%" stop-color="#273934"/>
      <stop offset="44%" stop-color="#071016"/>
      <stop offset="100%" stop-color="#05070a"/>
    </radialGradient>
    <linearGradient id="line" x1="180" y1="180" x2="844" y2="844">
      <stop offset="0%" stop-color="#f6d27a"/>
      <stop offset="52%" stop-color="#66e2cf"/>
      <stop offset="100%" stop-color="#f08a7e"/>
    </linearGradient>
    <filter id="glow" x="-30%" y="-30%" width="160%" height="160%">
      <feGaussianBlur stdDeviation="11" result="blur"/>
      <feMerge>
        <feMergeNode in="blur"/>
        <feMergeNode in="SourceGraphic"/>
      </feMerge>
    </filter>
  </defs>
  <rect width="1024" height="1024" rx="242" fill="url(#bg)"/>
  <g fill="none" stroke-linecap="round" filter="url(#glow)">
    <g stroke="#f6d27a" stroke-opacity=".24" stroke-width="7">
      <circle cx="512.0" cy="512.0" r="150"/>
      <circle cx="512.0" cy="362.0" r="150"/>
      <circle cx="641.9" cy="437.0" r="150"/>
      <circle cx="641.9" cy="587.0" r="150"/>
      <circle cx="512.0" cy="662.0" r="150"/>
      <circle cx="382.1" cy="587.0" r="150"/>
      <circle cx="382.1" cy="437.0" r="150"/>
      <circle cx="512.0" cy="212.0" r="150"/>
      <circle cx="771.8" cy="362.0" r="150"/>
      <circle cx="771.8" cy="662.0" r="150"/>
      <circle cx="512.0" cy="812.0" r="150"/>
      <circle cx="252.2" cy="662.0" r="150"/>
      <circle cx="252.2" cy="362.0" r="150"/>
    </g>
    <path d="M512.0 512.0L512.0 362.0M512.0 512.0L641.9 437.0M512.0 512.0L641.9 587.0M512.0 512.0L512.0 662.0M512.0 512.0L382.1 587.0M512.0 512.0L382.1 437.0M512.0 512.0L512.0 212.0M512.0 512.0L771.8 362.0M512.0 512.0L771.8 662.0M512.0 512.0L512.0 812.0M512.0 512.0L252.2 662.0M512.0 512.0L252.2 362.0M512.0 362.0L641.9 437.0M512.0 362.0L641.9 587.0M512.0 362.0L512.0 662.0M512.0 362.0L382.1 587.0M512.0 362.0L382.1 437.0M512.0 362.0L512.0 212.0M512.0 362.0L771.8 362.0M512.0 362.0L771.8 662.0M512.0 362.0L512.0 812.0M512.0 362.0L252.2 662.0M512.0 362.0L252.2 362.0M641.9 437.0L641.9 587.0M641.9 437.0L512.0 662.0M641.9 437.0L382.1 587.0M641.9 437.0L382.1 437.0M641.9 437.0L512.0 212.0M641.9 437.0L771.8 362.0M641.9 437.0L771.8 662.0M641.9 437.0L512.0 812.0M641.9 437.0L252.2 662.0M641.9 437.0L252.2 362.0M641.9 587.0L512.0 662.0M641.9 587.0L382.1 587.0M641.9 587.0L382.1 437.0M641.9 587.0L512.0 212.0M641.9 587.0L771.8 362.0M641.9 587.0L771.8 662.0M641.9 587.0L512.0 812.0M641.9 587.0L252.2 662.0M641.9 587.0L252.2 362.0M512.0 662.0L382.1 587.0M512.0 662.0L382.1 437.0M512.0 662.0L512.0 212.0M512.0 662.0L771.8 362.0M512.0 662.0L771.8 662.0M512.0 662.0L512.0 812.0M512.0 662.0L252.2 662.0M512.0 662.0L252.2 362.0M382.1 587.0L382.1 437.0M382.1 587.0L512.0 212.0M382.1 587.0L771.8 362.0M382.1 587.0L771.8 662.0M382.1 587.0L512.0 812.0M382.1 587.0L252.2 662.0M382.1 587.0L252.2 362.0M382.1 437.0L512.0 212.0M382.1 437.0L771.8 362.0M382.1 437.0L771.8 662.0M382.1 437.0L512.0 812.0M382.1 437.0L252.2 662.0M382.1 437.0L252.2 362.0M512.0 212.0L771.8 362.0M512.0 212.0L771.8 662.0M512.0 212.0L512.0 812.0M512.0 212.0L252.2 662.0M512.0 212.0L252.2 362.0M771.8 362.0L771.8 662.0M771.8 362.0L512.0 812.0M771.8 362.0L252.2 662.0M771.8 362.0L252.2 362.0M771.8 662.0L512.0 812.0M771.8 662.0L252.2 662.0M771.8 662.0L252.2 362.0M512.0 812.0L252.2 662.0M512.0 812.0L252.2 362.0M252.2 662.0L252.2 362.0" stroke="url(#line)" stroke-width="6" stroke-opacity=".58"/>
  </g>
  <g filter="url(#glow)" fill="#eef5ee">
    <circle cx="512.0" cy="512.0" r="18"/>
    <circle cx="512.0" cy="362.0" r="13"/>
    <circle cx="641.9" cy="437.0" r="13"/>
    <circle cx="641.9" cy="587.0" r="13"/>
    <circle cx="512.0" cy="662.0" r="13"/>
    <circle cx="382.1" cy="587.0" r="13"/>
    <circle cx="382.1" cy="437.0" r="13"/>
    <circle cx="512.0" cy="212.0" r="13"/>
    <circle cx="771.8" cy="362.0" r="13"/>
    <circle cx="771.8" cy="662.0" r="13"/>
    <circle cx="512.0" cy="812.0" r="13"/>
    <circle cx="252.2" cy="662.0" r="13"/>
    <circle cx="252.2" cy="362.0" r="13"/>
  </g>
</svg>
